<svg xmlns="http://www.w3.org/2000/svg" width="811" height="338" viewBox="0 0 811 338" role="img" aria-label="fomalhaut1998 的 GitHub 数据看板"><style>.t{font:12px -apple-system,"Segoe UI","PingFang SC","Microsoft YaHei",sans-serif;fill:#8b949e}.t2{font:600 15px -apple-system,"Segoe UI","PingFang SC","Microsoft YaHei",sans-serif;fill:#c9d1d9}.t3{font:11px -apple-system,"Segoe UI","PingFang SC","Microsoft YaHei",sans-serif;fill:#8b949e}.k{font:12px -apple-system,"Segoe UI","PingFang SC","Microsoft YaHei",sans-serif;fill:#8b949e}.v{font:600 14px -apple-system,"Segoe UI","PingFang SC","Microsoft YaHei",sans-serif;fill:#c9d1d9}</style><rect x="0.5" y="0.5" width="810" height="337" rx="12" fill="#0d1117" stroke="#30363d"/><text x="26" y="30" class="t2">Fomalhaut 的 GitHub 数据看板</text><text x="785" y="30" class="t3" text-anchor="end">数据源 GitHub 公开 API</text><line x1="26" y1="44" x2="785" y2="44" stroke="#30363d"/><path transform="translate(28,60)" d="M6 0.8 7.6 4.2 11.3 4.7 8.6 7.3 9.3 11 6 9.2 2.7 11 3.4 7.3 0.7 4.7 4.4 4.2 Z" fill="#8b949e" fill-opacity="0.85" stroke="none"/><text x="50" y="71" class="k">Stars Earned（收获的 Star）</text><text x="326" y="72" class="v" text-anchor="end">1,062</text><path transform="translate(28,84)" d="M6 0.8 7.6 4.2 11.3 4.7 8.6 7.3 9.3 11 6 9.2 2.7 11 3.4 7.3 0.7 4.7 4.4 4.2 Z" stroke="#8b949e" stroke-width="1.3" fill="none"/><text x="50" y="95" class="k">Starred Repos（我 Star 的）</text><text x="326" y="96" class="v" text-anchor="end">131</text><g transform="translate(28,108)"><path d="M1.2 1.2h7.2v9.6H1.2z" stroke="#8b949e" stroke-width="1.3" fill="none"/><path d="M3.4 1.2v9.6" stroke="#8b949e" stroke-width="1.3" fill="none"/></g><text x="50" y="119" class="k">Public Repos（公开仓库）</text><text x="326" y="120" class="v" text-anchor="end">38</text><g transform="translate(28,132)"><circle cx="6" cy="4" r="2.4" stroke="#8b949e" stroke-width="1.3" fill="none"/><path d="M1.4 11c0-2.4 2-3.8 4.6-3.8S10.6 8.6 10.6 11" stroke="#8b949e" stroke-width="1.3" fill="none"/></g><text x="50" y="143" class="k">Followers（关注者）</text><text x="326" y="144" class="v" text-anchor="end">163</text><g transform="translate(28,156)"><circle cx="6" cy="6" r="3.6" stroke="#8b949e" stroke-width="1.3" fill="none"/><path d="M0 6h2.4M9.6 6H12" stroke="#8b949e" stroke-width="1.3" fill="none"/></g><text x="50" y="167" class="k">Commits（提交）</text><text x="326" y="168" class="v" text-anchor="end">737</text><g transform="translate(28,180)"><circle cx="6" cy="6" r="4.6" stroke="#8b949e" stroke-width="1.3" fill="none"/><circle cx="6" cy="6" r="1.4" fill="#8b949e"/></g><text x="50" y="191" class="k">Issues（议题）</text><text x="326" y="192" class="v" text-anchor="end">6</text><path transform="translate(28,204)" d="M6 0.6c2.4 2.6 4 4.4 4 6.8A4 4 0 0 1 2 7.4C2 5 3.6 3.2 6 0.6Z" fill="#8b949e" fill-opacity="0.85" stroke="none"/><text x="50" y="215" class="k">近一年贡献</text><text x="326" y="216" class="v" text-anchor="end">39</text><circle cx="463.9" cy="56" r="4" fill="#39d353"/><text x="473.9" y="60" class="t3">Push</text><circle cx="525.1" cy="56" r="4" fill="#d29922"/><text x="535.1" y="60" class="t3">Issue</text><circle cx="593.1" cy="56" r="4" fill="#a371f7"/><text x="603.1" y="60" class="t3">评论</text><circle cx="649.1" cy="56" r="4" fill="#6e7681"/><text x="659.1" y="60" class="t3">其他</text><line x1="356" y1="230" x2="785" y2="230" stroke="#21262d" stroke-width="1"/><text x="348" y="234" class="t3" text-anchor="end">0</text><line x1="356" y1="167" x2="785" y2="167" stroke="#21262d" stroke-width="1" stroke-dasharray="3 4"/><text x="348" y="171" class="t3" text-anchor="end">31</text><line x1="356" y1="104" x2="785" y2="104" stroke="#21262d" stroke-width="1" stroke-dasharray="3 4"/><text x="348" y="108" class="t3" text-anchor="end">62</text><path d="M356,230 L391.8,230 L427.5,230 L463.3,230 L499,230 L534.8,230 L570.5,230 L606.3,230 L642,230 L677.8,230 L713.5,230 L749.3,215.8 L785,104" fill="none" stroke="#39d353" stroke-width="1.8" stroke-linejoin="round" stroke-linecap="round"/><circle cx="749.3" cy="215.8" r="2.4" fill="#0d1117" stroke="#39d353" stroke-width="1.5"/><circle cx="785" cy="104" r="2.4" fill="#0d1117" stroke="#39d353" stroke-width="1.5"/><path d="M356,230 L391.8,230 L427.5,230 L463.3,230 L499,230 L534.8,230 L570.5,230 L606.3,230 L642,230 L677.8,230 L713.5,230 L749.3,230 L785,228" fill="none" stroke="#d29922" stroke-width="1.8" stroke-linejoin="round" stroke-linecap="round"/><circle cx="785" cy="228" r="2.4" fill="#0d1117" stroke="#d29922" stroke-width="1.5"/><path d="M356,230 L391.8,230 L427.5,230 L463.3,230 L499,230 L534.8,230 L570.5,230 L606.3,230 L642,230 L677.8,230 L713.5,230 L749.3,230 L785,221.9" fill="none" stroke="#a371f7" stroke-width="1.8" stroke-linejoin="round" stroke-linecap="round"/><circle cx="785" cy="221.9" r="2.4" fill="#0d1117" stroke="#a371f7" stroke-width="1.5"/><path d="M356,230 L391.8,230 L427.5,230 L463.3,230 L499,230 L534.8,230 L570.5,230 L606.3,230 L642,230 L677.8,230 L713.5,230 L749.3,213.7 L785,215.8" fill="none" stroke="#6e7681" stroke-width="1.8" stroke-linejoin="round" stroke-linecap="round"/><circle cx="749.3" cy="213.7" r="2.4" fill="#0d1117" stroke="#6e7681" stroke-width="1.5"/><circle cx="785" cy="215.8" r="2.4" fill="#0d1117" stroke="#6e7681" stroke-width="1.5"/><line x1="356" y1="230" x2="785" y2="230" stroke="#30363d"/><text x="356" y="246" class="t3" text-anchor="middle">7/18</text><text x="427.5" y="246" class="t3" text-anchor="middle">8/1</text><text x="499" y="246" class="t3" text-anchor="middle">8/15</text><text x="570.5" y="246" class="t3" text-anchor="middle">8/29</text><text x="642" y="246" class="t3" text-anchor="middle">9/12</text><text x="713.5" y="246" class="t3" text-anchor="middle">9/26</text><text x="785" y="246" class="t3" text-anchor="middle">10/10</text><text x="356" y="92" class="t3">近 13 周各类活动（按周）</text><line x1="26" y1="254" x2="785" y2="254" stroke="#30363d"/><text x="26" y="276" class="t3">常用语言（按字节 · 统计 Star 最高的 8 个原创仓库）</text><rect x="26" y="286" width="348.1" height="8" rx="4" fill="#f1e05a"/><rect x="377.1" y="286" width="163.6" height="8" rx="4" fill="#563d7c"/><rect x="543.7" y="286" width="94.1" height="8" rx="4" fill="#ff6347"/><rect x="640.8" y="286" width="53.8" height="8" rx="4" fill="#a86454"/><rect x="697.6" y="286" width="35.1" height="8" rx="4" fill="#e34c26"/><circle cx="30" cy="312" r="4" fill="#f1e05a"/><text x="40" y="316" class="t3">JavaScript 46.6%</text><circle cx="174.8" cy="312" r="4" fill="#563d7c"/><text x="184.8" y="316" class="t3">CSS 21.9%</text><circle cx="272" cy="312" r="4" fill="#ff6347"/><text x="282" y="316" class="t3">Stylus 12.6%</text><circle cx="389.6" cy="312" r="4" fill="#a86454"/><text x="399.6" y="316" class="t3">Pug 7.2%</text><circle cx="480" cy="312" r="4" fill="#e34c26"/><text x="490" y="316" class="t3">HTML 4.7%</text><text x="785" y="324" class="t3" text-anchor="end">由 GitHub Actions 自动生成 · 2026-10-10</text></svg>